<svg width="75" height="16" viewBox="0 0 75 16" fill="none" xmlns="http://www.w3.org/2000/svg">
<path d="M1.0137 6.00009C0.461464 5.99253 0.00765865 6.43407 9.38177e-05 6.9863C-0.00747102 7.53854 0.43407 7.99234 0.986303 7.99991L1.0137 6.00009ZM74.6974 8.71673C75.0932 8.33159 75.1019 7.69848 74.7167 7.30265L68.4405 0.852112C68.0554 0.456275 67.4223 0.447602 67.0265 0.832741C66.6306 1.21788 66.6219 1.85098 67.0071 2.24682L72.5859 7.98063L66.8521 13.5595C66.4563 13.9446 66.4476 14.5777 66.8327 14.9735C67.2179 15.3694 67.851 15.3781 68.2468 14.9929L74.6974 8.71673ZM0.986303 7.99991L73.9863 8.99991L74.0137 7.00009L1.0137 6.00009L0.986303 7.99991Z" fill="black"/>
</svg>
